solid OpenSCAD_Model
  facet normal -1 0 0
    outer loop
      vertex -5 -5 0
      vertex -5 -5 1.3
      vertex -5 5 0
    endloop
  endfacet
  facet normal -1 0 0
    outer loop
      vertex -5 5 0
      vertex -5 -5 1.3
      vertex -5 5 1.3
    endloop
  endfacet
  facet normal 0 -1 0
    outer loop
      vertex -5 -5 1.3
      vertex -5 -5 0
      vertex 5 -5 0
    endloop
  endfacet
  facet normal 0 -1 0
    outer loop
      vertex 5 -5 1.3
      vertex -5 -5 1.3
      vertex 5 -5 0
    endloop
  endfacet
  facet normal 0 0 -1
    outer loop
      vertex -5 -5 0
      vertex -5 5 0
      vertex 5 -5 0
    endloop
  endfacet
  facet normal 0 0 -1
    outer loop
      vertex 5 -5 0
      vertex -5 5 0
      vertex 5 5 0
    endloop
  endfacet
  facet normal 0 1 0
    outer loop
      vertex -5 5 0
      vertex -5 5 1.3
      vertex 5 5 0
    endloop
  endfacet
  facet normal 0 1 0
    outer loop
      vertex 5 5 0
      vertex -5 5 1.3
      vertex 5 5 1.3
    endloop
  endfacet
  facet normal 0 0 1
    outer loop
      vertex -4.10114 3.68874 1.3
      vertex -5 -5 1.3
      vertex 5 -5 1.3
    endloop
  endfacet
  facet normal 0 0 1
    outer loop
      vertex -3.73522 4.19237 1.3
      vertex -3.68183 4.02805 1.3
      vertex 5 -5 1.3
    endloop
  endfacet
  facet normal 0 0 1
    outer loop
      vertex -5 5 1.3
      vertex -5 -5 1.3
      vertex -4.31817 3.97195 1.3
    endloop
  endfacet
  facet normal 0 0 1
    outer loop
      vertex -5 5 1.3
      vertex -4.31817 3.97195 1.3
      vertex -4.32728 4 1.3
    endloop
  endfacet
  facet normal 0 0 1
    outer loop
      vertex -5 5 1.3
      vertex -4.32728 4 1.3
      vertex -4.27389 4.16432 1.3
    endloop
  endfacet
  facet normal 0 0 1
    outer loop
      vertex -5 5 1.3
      vertex -4.27389 4.16432 1.3
      vertex -4.26478 4.19237 1.3
    endloop
  endfacet
  facet normal 0 0 1
    outer loop
      vertex -4.10114 4.31126 1.3
      vertex -5 5 1.3
      vertex -4.125 4.29393 1.3
    endloop
  endfacet
  facet normal 0 0 1
    outer loop
      vertex 5 5 1.3
      vertex -5 5 1.3
      vertex -4.10114 4.31126 1.3
    endloop
  endfacet
  facet normal 0 0 1
    outer loop
      vertex -3.67272 4 1.3
      vertex -3.72611 3.83568 1.3
      vertex 5 -5 1.3
    endloop
  endfacet
  facet normal 0 0 1
    outer loop
      vertex -3.73522 3.80763 1.3
      vertex -3.875 3.70607 1.3
      vertex 5 -5 1.3
    endloop
  endfacet
  facet normal 0 0 1
    outer loop
      vertex 5 5 1.3
      vertex -3.89886 4.31126 1.3
      vertex -3.75909 4.20971 1.3
    endloop
  endfacet
  facet normal 0 0 1
    outer loop
      vertex 5 5 1.3
      vertex -3.73522 4.19237 1.3
      vertex 5 -5 1.3
    endloop
  endfacet
  facet normal 0 0 1
    outer loop
      vertex 5 5 1.3
      vertex -3.75909 4.20971 1.3
      vertex -3.73522 4.19237 1.3
    endloop
  endfacet
  facet normal 0 0 1
    outer loop
      vertex -3.68183 4.02805 1.3
      vertex -3.67272 4 1.3
      vertex 5 -5 1.3
    endloop
  endfacet
  facet normal 0 0 1
    outer loop
      vertex -3.72611 3.83568 1.3
      vertex -3.73522 3.80763 1.3
      vertex 5 -5 1.3
    endloop
  endfacet
  facet normal 0 0 1
    outer loop
      vertex -4.10114 4.31126 1.3
      vertex -3.89886 4.31126 1.3
      vertex 5 5 1.3
    endloop
  endfacet
  facet normal 0 0 1
    outer loop
      vertex -3.875 3.70607 1.3
      vertex -3.89886 3.68874 1.3
      vertex 5 -5 1.3
    endloop
  endfacet
  facet normal 0 0 1
    outer loop
      vertex -4.24091 3.79029 1.3
      vertex -5 -5 1.3
      vertex -4.10114 3.68874 1.3
    endloop
  endfacet
  facet normal 0 0 1
    outer loop
      vertex -4.26478 3.80763 1.3
      vertex -5 -5 1.3
      vertex -4.24091 3.79029 1.3
    endloop
  endfacet
  facet normal 0 0 1
    outer loop
      vertex -4.31817 3.97195 1.3
      vertex -5 -5 1.3
      vertex -4.26478 3.80763 1.3
    endloop
  endfacet
  facet normal 0 0 1
    outer loop
      vertex -3.89886 3.68874 1.3
      vertex -4.10114 3.68874 1.3
      vertex 5 -5 1.3
    endloop
  endfacet
  facet normal 0 0 1
    outer loop
      vertex -4.26478 4.19237 1.3
      vertex -4.125 4.29393 1.3
      vertex -5 5 1.3
    endloop
  endfacet
  facet normal 1 0 0
    outer loop
      vertex 5 -5 1.3
      vertex 5 -5 0
      vertex 5 5 0
    endloop
  endfacet
  facet normal 1 0 0
    outer loop
      vertex 5 5 1.3
      vertex 5 -5 1.3
      vertex 5 5 0
    endloop
  endfacet
  facet normal 0.57735 0.187592 0.794655
    outer loop
      vertex -4.26478 3.80763 1.3
      vertex -4.125 3.90918 1.17447
      vertex -4.31817 3.97195 1.3
    endloop
  endfacet
  facet normal 0.577349 0.187589 0.794656
    outer loop
      vertex -4.31817 3.97195 1.3
      vertex -4.125 3.90918 1.17447
      vertex -4.15451 4 1.17447
    endloop
  endfacet
  facet normal 0.577349 0.187589 0.794656
    outer loop
      vertex -4.32728 4 1.3
      vertex -4.31817 3.97195 1.3
      vertex -4.15451 4 1.17447
    endloop
  endfacet
  facet normal 0.356821 0.491124 0.794655
    outer loop
      vertex -4.24091 3.79029 1.3
      vertex -4.04775 3.85305 1.17447
      vertex -4.125 3.90918 1.17447
    endloop
  endfacet
  facet normal 0.356821 0.491124 0.794655
    outer loop
      vertex -4.26478 3.80763 1.3
      vertex -4.24091 3.79029 1.3
      vertex -4.125 3.90918 1.17447
    endloop
  endfacet
  facet normal 0.356821 0.491123 0.794655
    outer loop
      vertex -4.10114 3.68874 1.3
      vertex -4.04775 3.85305 1.17447
      vertex -4.24091 3.79029 1.3
    endloop
  endfacet
  facet normal 0 0.607061 0.794655
    outer loop
      vertex -3.89886 3.68874 1.3
      vertex -3.95225 3.85305 1.17447
      vertex -4.04775 3.85305 1.17447
    endloop
  endfacet
  facet normal 0 0.607061 0.794655
    outer loop
      vertex -4.10114 3.68874 1.3
      vertex -3.89886 3.68874 1.3
      vertex -4.04775 3.85305 1.17447
    endloop
  endfacet
  facet normal -0.35682 0.491123 0.794655
    outer loop
      vertex -3.89886 3.68874 1.3
      vertex -3.875 3.70607 1.3
      vertex -3.875 3.90918 1.17447
    endloop
  endfacet
  facet normal -0.35682 0.491123 0.794655
    outer loop
      vertex -3.95225 3.85305 1.17447
      vertex -3.89886 3.68874 1.3
      vertex -3.875 3.90918 1.17447
    endloop
  endfacet
  facet normal -0.356822 0.491123 0.794655
    outer loop
      vertex -3.73522 3.80763 1.3
      vertex -3.875 3.90918 1.17447
      vertex -3.875 3.70607 1.3
    endloop
  endfacet
  facet normal -0.577351 0.187589 0.794655
    outer loop
      vertex -3.73522 3.80763 1.3
      vertex -3.72611 3.83568 1.3
      vertex -3.84549 4 1.17447
    endloop
  endfacet
  facet normal -0.577351 0.187589 0.794655
    outer loop
      vertex -3.875 3.90918 1.17447
      vertex -3.73522 3.80763 1.3
      vertex -3.84549 4 1.17447
    endloop
  endfacet
  facet normal -0.577349 0.187592 0.794656
    outer loop
      vertex -3.72611 3.83568 1.3
      vertex -3.67272 4 1.3
      vertex -3.84549 4 1.17447
    endloop
  endfacet
  facet normal -0.577349 -0.187589 0.794656
    outer loop
      vertex -3.84549 4 1.17447
      vertex -3.67272 4 1.3
      vertex -3.68183 4.02805 1.3
    endloop
  endfacet
  facet normal -0.577349 -0.187589 0.794656
    outer loop
      vertex -3.875 4.09082 1.17447
      vertex -3.84549 4 1.17447
      vertex -3.68183 4.02805 1.3
    endloop
  endfacet
  facet normal -0.57735 -0.187592 0.794655
    outer loop
      vertex -3.68183 4.02805 1.3
      vertex -3.73522 4.19237 1.3
      vertex -3.875 4.09082 1.17447
    endloop
  endfacet
  facet normal -0.356821 -0.491124 0.794655
    outer loop
      vertex -3.875 4.09082 1.17447
      vertex -3.73522 4.19237 1.3
      vertex -3.75909 4.20971 1.3
    endloop
  endfacet
  facet normal -0.356821 -0.491124 0.794655
    outer loop
      vertex -3.95225 4.14695 1.17447
      vertex -3.875 4.09082 1.17447
      vertex -3.75909 4.20971 1.3
    endloop
  endfacet
  facet normal -0.356821 -0.491123 0.794655
    outer loop
      vertex -3.75909 4.20971 1.3
      vertex -3.89886 4.31126 1.3
      vertex -3.95225 4.14695 1.17447
    endloop
  endfacet
  facet normal 0 -0.607061 0.794655
    outer loop
      vertex -4.04775 4.14695 1.17447
      vertex -3.95225 4.14695 1.17447
      vertex -3.89886 4.31126 1.3
    endloop
  endfacet
  facet normal 0 -0.607061 0.794655
    outer loop
      vertex -4.10114 4.31126 1.3
      vertex -4.04775 4.14695 1.17447
      vertex -3.89886 4.31126 1.3
    endloop
  endfacet
  facet normal 0.35682 -0.491123 0.794655
    outer loop
      vertex -4.04775 4.14695 1.17447
      vertex -4.10114 4.31126 1.3
      vertex -4.125 4.29393 1.3
    endloop
  endfacet
  facet normal 0.35682 -0.491123 0.794655
    outer loop
      vertex -4.125 4.09082 1.17447
      vertex -4.04775 4.14695 1.17447
      vertex -4.125 4.29393 1.3
    endloop
  endfacet
  facet normal 0.356822 -0.491123 0.794655
    outer loop
      vertex -4.125 4.09082 1.17447
      vertex -4.125 4.29393 1.3
      vertex -4.26478 4.19237 1.3
    endloop
  endfacet
  facet normal 0.577351 -0.187589 0.794655
    outer loop
      vertex -4.15451 4 1.17447
      vertex -4.125 4.09082 1.17447
      vertex -4.26478 4.19237 1.3
    endloop
  endfacet
  facet normal 0.577351 -0.187589 0.794655
    outer loop
      vertex -4.27389 4.16432 1.3
      vertex -4.15451 4 1.17447
      vertex -4.26478 4.19237 1.3
    endloop
  endfacet
  facet normal 0.577349 -0.187592 0.794656
    outer loop
      vertex -4.15451 4 1.17447
      vertex -4.27389 4.16432 1.3
      vertex -4.32728 4 1.3
    endloop
  endfacet
  facet normal 0 0 1
    outer loop
      vertex -4.125 3.90918 1.17447
      vertex -4.04775 3.85305 1.17447
      vertex -3.95225 3.85305 1.17447
    endloop
  endfacet
  facet normal 0 0 1
    outer loop
      vertex -3.84549 4 1.17447
      vertex -4.125 3.90918 1.17447
      vertex -3.875 3.90918 1.17447
    endloop
  endfacet
  facet normal 0 0 1
    outer loop
      vertex -3.875 3.90918 1.17447
      vertex -4.125 3.90918 1.17447
      vertex -3.95225 3.85305 1.17447
    endloop
  endfacet
  facet normal 0 0 1
    outer loop
      vertex -3.875 4.09082 1.17447
      vertex -4.125 3.90918 1.17447
      vertex -3.84549 4 1.17447
    endloop
  endfacet
  facet normal 0 0 1
    outer loop
      vertex -3.95225 4.14695 1.17447
      vertex -4.125 3.90918 1.17447
      vertex -3.875 4.09082 1.17447
    endloop
  endfacet
  facet normal 0 0 1
    outer loop
      vertex -4.04775 4.14695 1.17447
      vertex -4.125 3.90918 1.17447
      vertex -3.95225 4.14695 1.17447
    endloop
  endfacet
  facet normal 0 0 1
    outer loop
      vertex -4.125 4.09082 1.17447
      vertex -4.125 3.90918 1.17447
      vertex -4.04775 4.14695 1.17447
    endloop
  endfacet
  facet normal 0 0 1
    outer loop
      vertex -4.15451 4 1.17447
      vertex -4.125 3.90918 1.17447
      vertex -4.125 4.09082 1.17447
    endloop
  endfacet
endsolid OpenSCAD_Model
