solid OpenSCAD_Model
  facet normal -1 0 0
    outer loop
      vertex -5.1 -2.15 0
      vertex -5.1 -2.15 5
      vertex -5.1 2.15 0
    endloop
  endfacet
  facet normal -1 0 0
    outer loop
      vertex -5.1 2.15 0
      vertex -5.1 -2.15 5
      vertex -5.1 2.15 5
    endloop
  endfacet
  facet normal 0 -1 0
    outer loop
      vertex -5.1 -2.15 5
      vertex -5.1 -2.15 0
      vertex 5.1 -2.15 0
    endloop
  endfacet
  facet normal 0 -1 0
    outer loop
      vertex 5.1 -2.15 5
      vertex -5.1 -2.15 5
      vertex 5.1 -2.15 0
    endloop
  endfacet
  facet normal 0 0 -1
    outer loop
      vertex -0.3 0.2 0
      vertex -5.1 2.15 0
      vertex 5.1 2.15 0
    endloop
  endfacet
  facet normal 0 0 -1
    outer loop
      vertex -5.1 -2.15 0
      vertex -5.1 2.15 0
      vertex -2.3 0.2 0
    endloop
  endfacet
  facet normal 0 0 -1
    outer loop
      vertex -5.1 -2.15 0
      vertex -2.3 0.2 0
      vertex -2.3 -0.2 0
    endloop
  endfacet
  facet normal 0 0 -1
    outer loop
      vertex -5.1 -2.15 0
      vertex -2.3 -0.2 0
      vertex 5.1 -2.15 0
    endloop
  endfacet
  facet normal 0 0 -1
    outer loop
      vertex -2.3 -0.2 0
      vertex -1.7 -0.2 0
      vertex 5.1 -2.15 0
    endloop
  endfacet
  facet normal 0 0 -1
    outer loop
      vertex -2.3 0.2 0
      vertex -5.1 2.15 0
      vertex -1.7 0.2 0
    endloop
  endfacet
  facet normal 0 0 -1
    outer loop
      vertex -0.3 -0.2 0
      vertex -5.1 2.15 0
      vertex -0.3 0.2 0
    endloop
  endfacet
  facet normal 0 0 -1
    outer loop
      vertex 0.3 0.2 0
      vertex -0.3 0.2 0
      vertex 5.1 2.15 0
    endloop
  endfacet
  facet normal 0 0 -1
    outer loop
      vertex -1.7 0.2 0
      vertex -5.1 2.15 0
      vertex -0.3 -0.2 0
    endloop
  endfacet
  facet normal 0 0 -1
    outer loop
      vertex -1.7 0.2 0
      vertex -0.3 -0.2 0
      vertex 5.1 -2.15 0
    endloop
  endfacet
  facet normal 0 0 -1
    outer loop
      vertex 0.3 0.2 0
      vertex 5.1 -2.15 0
      vertex 0.3 -0.2 0
    endloop
  endfacet
  facet normal 0 0 -1
    outer loop
      vertex -0.3 -0.2 0
      vertex 0.3 -0.2 0
      vertex 5.1 -2.15 0
    endloop
  endfacet
  facet normal 0 0 -1
    outer loop
      vertex 2.3 -0.2 0
      vertex 5.1 -2.15 0
      vertex 1.7 -0.2 0
    endloop
  endfacet
  facet normal 0 0 -1
    outer loop
      vertex 1.7 0.2 0
      vertex 0.3 0.2 0
      vertex 5.1 2.15 0
    endloop
  endfacet
  facet normal 0 0 -1
    outer loop
      vertex 1.7 -0.2 0
      vertex 0.3 0.2 0
      vertex 1.7 0.2 0
    endloop
  endfacet
  facet normal 0 0 -1
    outer loop
      vertex 2.3 0.2 0
      vertex 1.7 0.2 0
      vertex 5.1 2.15 0
    endloop
  endfacet
  facet normal 0 0 -1
    outer loop
      vertex 5.1 -2.15 0
      vertex 0.3 0.2 0
      vertex 1.7 -0.2 0
    endloop
  endfacet
  facet normal 0 0 -1
    outer loop
      vertex 5.1 -2.15 0
      vertex 2.3 -0.2 0
      vertex 5.1 2.15 0
    endloop
  endfacet
  facet normal 0 0 -1
    outer loop
      vertex 2.3 -0.2 0
      vertex 2.3 0.2 0
      vertex 5.1 2.15 0
    endloop
  endfacet
  facet normal 0 0 -1
    outer loop
      vertex -1.7 0.2 0
      vertex 5.1 -2.15 0
      vertex -1.7 -0.2 0
    endloop
  endfacet
  facet normal 0 1 0
    outer loop
      vertex 1.9 2.15 2.85
      vertex 5.1 2.15 0
      vertex -1.9 2.15 2.85
    endloop
  endfacet
  facet normal 0 1 0
    outer loop
      vertex -1.9 2.15 4.15
      vertex -5.1 2.15 5
      vertex 5.1 2.15 5
    endloop
  endfacet
  facet normal 0 1 0
    outer loop
      vertex 1.9 2.15 4.15
      vertex -1.9 2.15 4.15
      vertex 5.1 2.15 5
    endloop
  endfacet
  facet normal 0 1 0
    outer loop
      vertex -5.1 2.15 0
      vertex -5.1 2.15 5
      vertex -1.9 2.15 2.85
    endloop
  endfacet
  facet normal 0 1 0
    outer loop
      vertex -5.1 2.15 0
      vertex -1.9 2.15 2.85
      vertex 5.1 2.15 0
    endloop
  endfacet
  facet normal 0 1 0
    outer loop
      vertex 5.1 2.15 0
      vertex 1.9 2.15 2.85
      vertex 5.1 2.15 5
    endloop
  endfacet
  facet normal 0 1 0
    outer loop
      vertex 1.9 2.15 2.85
      vertex 1.9 2.15 4.15
      vertex 5.1 2.15 5
    endloop
  endfacet
  facet normal 0 1 0
    outer loop
      vertex -1.9 2.15 2.85
      vertex -5.1 2.15 5
      vertex -1.9 2.15 4.15
    endloop
  endfacet
  facet normal 0 0 1
    outer loop
      vertex -5.1 2.15 5
      vertex -5.1 -2.15 5
      vertex 5.1 -2.15 5
    endloop
  endfacet
  facet normal 0 0 1
    outer loop
      vertex 5.1 2.15 5
      vertex -5.1 2.15 5
      vertex 5.1 -2.15 5
    endloop
  endfacet
  facet normal 1 0 0
    outer loop
      vertex 5.1 -2.15 5
      vertex 5.1 -2.15 0
      vertex 5.1 2.15 0
    endloop
  endfacet
  facet normal 1 0 0
    outer loop
      vertex 5.1 2.15 5
      vertex 5.1 -2.15 5
      vertex 5.1 2.15 0
    endloop
  endfacet
  facet normal -1 0 0
    outer loop
      vertex -2.3 -0.2 -3.4
      vertex -2.3 -0.2 0
      vertex -2.3 0.2 -3.4
    endloop
  endfacet
  facet normal -1 0 0
    outer loop
      vertex -2.3 0.2 -3.4
      vertex -2.3 -0.2 0
      vertex -2.3 0.2 0
    endloop
  endfacet
  facet normal 0 1 0
    outer loop
      vertex -2.3 0.2 -3.4
      vertex -2.3 0.2 0
      vertex -1.7 0.2 -3.4
    endloop
  endfacet
  facet normal 0 1 0
    outer loop
      vertex -1.7 0.2 -3.4
      vertex -2.3 0.2 0
      vertex -1.7 0.2 0
    endloop
  endfacet
  facet normal 1 0 0
    outer loop
      vertex -1.7 -0.2 0
      vertex -1.7 -0.2 -3.4
      vertex -1.7 0.2 -3.4
    endloop
  endfacet
  facet normal 1 0 0
    outer loop
      vertex -1.7 0.2 0
      vertex -1.7 -0.2 0
      vertex -1.7 0.2 -3.4
    endloop
  endfacet
  facet normal 0 -1 0
    outer loop
      vertex -2.3 -0.2 0
      vertex -2.3 -0.2 -3.4
      vertex -1.7 -0.2 -3.4
    endloop
  endfacet
  facet normal 0 -1 0
    outer loop
      vertex -1.7 -0.2 0
      vertex -2.3 -0.2 0
      vertex -1.7 -0.2 -3.4
    endloop
  endfacet
  facet normal -1 0 0
    outer loop
      vertex -0.3 -0.2 -3.4
      vertex -0.3 -0.2 0
      vertex -0.3 0.2 -3.4
    endloop
  endfacet
  facet normal -1 0 0
    outer loop
      vertex -0.3 0.2 -3.4
      vertex -0.3 -0.2 0
      vertex -0.3 0.2 0
    endloop
  endfacet
  facet normal 0 1 0
    outer loop
      vertex -0.3 0.2 -3.4
      vertex -0.3 0.2 0
      vertex 0.3 0.2 -3.4
    endloop
  endfacet
  facet normal 0 1 0
    outer loop
      vertex 0.3 0.2 -3.4
      vertex -0.3 0.2 0
      vertex 0.3 0.2 0
    endloop
  endfacet
  facet normal 1 0 0
    outer loop
      vertex 0.3 -0.2 0
      vertex 0.3 -0.2 -3.4
      vertex 0.3 0.2 -3.4
    endloop
  endfacet
  facet normal 1 0 0
    outer loop
      vertex 0.3 0.2 0
      vertex 0.3 -0.2 0
      vertex 0.3 0.2 -3.4
    endloop
  endfacet
  facet normal 0 -1 0
    outer loop
      vertex -0.3 -0.2 0
      vertex -0.3 -0.2 -3.4
      vertex 0.3 -0.2 -3.4
    endloop
  endfacet
  facet normal 0 -1 0
    outer loop
      vertex 0.3 -0.2 0
      vertex -0.3 -0.2 0
      vertex 0.3 -0.2 -3.4
    endloop
  endfacet
  facet normal -1 0 0
    outer loop
      vertex 1.7 -0.2 -3.4
      vertex 1.7 -0.2 0
      vertex 1.7 0.2 -3.4
    endloop
  endfacet
  facet normal -1 0 0
    outer loop
      vertex 1.7 0.2 -3.4
      vertex 1.7 -0.2 0
      vertex 1.7 0.2 0
    endloop
  endfacet
  facet normal 0 1 0
    outer loop
      vertex 1.7 0.2 -3.4
      vertex 1.7 0.2 0
      vertex 2.3 0.2 -3.4
    endloop
  endfacet
  facet normal 0 1 0
    outer loop
      vertex 2.3 0.2 -3.4
      vertex 1.7 0.2 0
      vertex 2.3 0.2 0
    endloop
  endfacet
  facet normal 1 0 0
    outer loop
      vertex 2.3 -0.2 0
      vertex 2.3 -0.2 -3.4
      vertex 2.3 0.2 -3.4
    endloop
  endfacet
  facet normal 1 0 0
    outer loop
      vertex 2.3 0.2 0
      vertex 2.3 -0.2 0
      vertex 2.3 0.2 -3.4
    endloop
  endfacet
  facet normal 0 -1 0
    outer loop
      vertex 1.7 -0.2 0
      vertex 1.7 -0.2 -3.4
      vertex 2.3 -0.2 -3.4
    endloop
  endfacet
  facet normal 0 -1 0
    outer loop
      vertex 2.3 -0.2 0
      vertex 1.7 -0.2 0
      vertex 2.3 -0.2 -3.4
    endloop
  endfacet
  facet normal 1 0 0
    outer loop
      vertex -1.9 2.15 2.85
      vertex -1.9 2.15 4.15
      vertex -1.9 1.6 4.15
    endloop
  endfacet
  facet normal 1 0 0
    outer loop
      vertex -1.9 1.6 2.85
      vertex -1.9 2.15 2.85
      vertex -1.9 1.6 4.15
    endloop
  endfacet
  facet normal 0 0 -1
    outer loop
      vertex 1.9 2.15 4.15
      vertex 1.9 1.6 4.15
      vertex -1.9 2.15 4.15
    endloop
  endfacet
  facet normal 0 0 -1
    outer loop
      vertex -1.9 2.15 4.15
      vertex 1.9 1.6 4.15
      vertex -1.9 1.6 4.15
    endloop
  endfacet
  facet normal -1 0 0
    outer loop
      vertex 1.9 2.15 4.15
      vertex 1.9 2.15 2.85
      vertex 1.9 1.6 4.15
    endloop
  endfacet
  facet normal -1 0 0
    outer loop
      vertex 1.9 1.6 4.15
      vertex 1.9 2.15 2.85
      vertex 1.9 1.6 2.85
    endloop
  endfacet
  facet normal 0 0 1
    outer loop
      vertex 1.9 1.6 2.85
      vertex 1.9 2.15 2.85
      vertex -1.9 2.15 2.85
    endloop
  endfacet
  facet normal 0 0 1
    outer loop
      vertex -1.9 1.6 2.85
      vertex 1.9 1.6 2.85
      vertex -1.9 2.15 2.85
    endloop
  endfacet
  facet normal 0 0 -1
    outer loop
      vertex -2.3 -0.2 -3.4
      vertex -2.3 0.2 -3.4
      vertex -1.7 -0.2 -3.4
    endloop
  endfacet
  facet normal 0 0 -1
    outer loop
      vertex -1.7 -0.2 -3.4
      vertex -2.3 0.2 -3.4
      vertex -1.7 0.2 -3.4
    endloop
  endfacet
  facet normal 0 0 -1
    outer loop
      vertex -0.3 -0.2 -3.4
      vertex -0.3 0.2 -3.4
      vertex 0.3 -0.2 -3.4
    endloop
  endfacet
  facet normal 0 0 -1
    outer loop
      vertex 0.3 -0.2 -3.4
      vertex -0.3 0.2 -3.4
      vertex 0.3 0.2 -3.4
    endloop
  endfacet
  facet normal 0 0 -1
    outer loop
      vertex 1.7 -0.2 -3.4
      vertex 1.7 0.2 -3.4
      vertex 2.3 -0.2 -3.4
    endloop
  endfacet
  facet normal 0 0 -1
    outer loop
      vertex 2.3 -0.2 -3.4
      vertex 1.7 0.2 -3.4
      vertex 2.3 0.2 -3.4
    endloop
  endfacet
  facet normal 0 1 0
    outer loop
      vertex 1.9 1.6 4.15
      vertex 1.9 1.6 2.85
      vertex -1.9 1.6 4.15
    endloop
  endfacet
  facet normal 0 1 0
    outer loop
      vertex -1.9 1.6 4.15
      vertex 1.9 1.6 2.85
      vertex -1.9 1.6 2.85
    endloop
  endfacet
  facet normal -1 0 0
    outer loop
      vertex 0.25 1.65 2.9
      vertex 0.25 1.65 4.1
      vertex 0.25 4.65 2.9
    endloop
  endfacet
  facet normal -1 0 0
    outer loop
      vertex 0.25 4.65 2.9
      vertex 0.25 1.65 4.1
      vertex 0.25 4.65 4.1
    endloop
  endfacet
  facet normal 0 -1 0
    outer loop
      vertex 0.25 1.65 4.1
      vertex 0.25 1.65 2.9
      vertex 1.75 1.65 2.9
    endloop
  endfacet
  facet normal 0 -1 0
    outer loop
      vertex 1.75 1.65 4.1
      vertex 0.25 1.65 4.1
      vertex 1.75 1.65 2.9
    endloop
  endfacet
  facet normal 0 0 -1
    outer loop
      vertex 0.25 1.65 2.9
      vertex 0.25 4.65 2.9
      vertex 1.75 1.65 2.9
    endloop
  endfacet
  facet normal 0 0 -1
    outer loop
      vertex 1.75 1.65 2.9
      vertex 0.25 4.65 2.9
      vertex 1.75 4.65 2.9
    endloop
  endfacet
  facet normal 0 1 0
    outer loop
      vertex 0.25 4.65 2.9
      vertex 0.25 4.65 4.1
      vertex 1.75 4.65 2.9
    endloop
  endfacet
  facet normal 0 1 0
    outer loop
      vertex 1.75 4.65 2.9
      vertex 0.25 4.65 4.1
      vertex 1.75 4.65 4.1
    endloop
  endfacet
  facet normal 0 0 1
    outer loop
      vertex 0.25 4.65 4.1
      vertex 0.25 1.65 4.1
      vertex 1.75 1.65 4.1
    endloop
  endfacet
  facet normal 0 0 1
    outer loop
      vertex 1.75 4.65 4.1
      vertex 0.25 4.65 4.1
      vertex 1.75 1.65 4.1
    endloop
  endfacet
  facet normal 1 0 0
    outer loop
      vertex 1.75 1.65 4.1
      vertex 1.75 1.65 2.9
      vertex 1.75 4.65 2.9
    endloop
  endfacet
  facet normal 1 0 0
    outer loop
      vertex 1.75 4.65 4.1
      vertex 1.75 1.65 4.1
      vertex 1.75 4.65 2.9
    endloop
  endfacet
endsolid OpenSCAD_Model
