solid OpenSCAD_Model
  facet normal -1 0 0
    outer loop
      vertex -1.3 -1.19 6.93889e-18
      vertex -1.3 -1.19 0.1
      vertex -1.3 -0.71 6.93889e-18
    endloop
  endfacet
  facet normal -1 0 0
    outer loop
      vertex -1.3 -0.71 6.93889e-18
      vertex -1.3 -1.19 0.1
      vertex -1.3 -0.71 0.1
    endloop
  endfacet
  facet normal 0 -1 0
    outer loop
      vertex -1.3 -1.19 0.1
      vertex -1.3 -1.19 6.93889e-18
      vertex -1 -1.19 6.93889e-18
    endloop
  endfacet
  facet normal 0 -1 0
    outer loop
      vertex -1.09041 -1.19 0.1
      vertex -1.3 -1.19 0.1
      vertex -1 -1.19 0.0211325
    endloop
  endfacet
  facet normal 0 -1 0
    outer loop
      vertex -1 -1.19 0.0211325
      vertex -1.3 -1.19 0.1
      vertex -1 -1.19 6.93889e-18
    endloop
  endfacet
  facet normal 0 -1 0
    outer loop
      vertex -0.7 -1.19 0.536218
      vertex -1 -1.19 0.0211325
      vertex -0.998038 -1.19 0.02
    endloop
  endfacet
  facet normal 0 -1 0
    outer loop
      vertex -0.7 -1.19 0.536218
      vertex -1.09041 -1.19 0.1
      vertex -1 -1.19 0.0211325
    endloop
  endfacet
  facet normal 0 -1 0
    outer loop
      vertex -0.7 -1.19 0.776218
      vertex -1.09041 -1.19 0.1
      vertex -0.7 -1.19 0.536218
    endloop
  endfacet
  facet normal 0 0 -1
    outer loop
      vertex -1.3 -1.19 6.93889e-18
      vertex -1.3 -0.71 6.93889e-18
      vertex -1 -1.19 6.93889e-18
    endloop
  endfacet
  facet normal 0 0 -1
    outer loop
      vertex -1 -1.19 6.93889e-18
      vertex -1.3 -0.71 6.93889e-18
      vertex -1 -0.71 6.93889e-18
    endloop
  endfacet
  facet normal 0 1 0
    outer loop
      vertex -1.3 -0.71 6.93889e-18
      vertex -1.3 -0.71 0.1
      vertex -1 -0.71 6.93889e-18
    endloop
  endfacet
  facet normal 0 1 0
    outer loop
      vertex -1 -0.71 6.93889e-18
      vertex -1.3 -0.71 0.1
      vertex -1.09041 -0.71 0.1
    endloop
  endfacet
  facet normal 0 1 0
    outer loop
      vertex -0.998038 -0.71 0.02
      vertex -1.09041 -0.71 0.1
      vertex -0.7 -0.71 0.776218
    endloop
  endfacet
  facet normal 0 1 0
    outer loop
      vertex -1 -0.71 0.0211325
      vertex -1.09041 -0.71 0.1
      vertex -0.998038 -0.71 0.02
    endloop
  endfacet
  facet normal 0 1 0
    outer loop
      vertex -1 -0.71 6.93889e-18
      vertex -1.09041 -0.71 0.1
      vertex -1 -0.71 0.0211325
    endloop
  endfacet
  facet normal 0 1 0
    outer loop
      vertex -0.998038 -0.71 0.02
      vertex -0.7 -0.71 0.776218
      vertex -0.7 -0.71 0.536218
    endloop
  endfacet
  facet normal 0 0 1
    outer loop
      vertex -1.3 -0.71 0.1
      vertex -1.3 -1.19 0.1
      vertex -1.09041 -1.19 0.1
    endloop
  endfacet
  facet normal 0 0 1
    outer loop
      vertex -1.09041 -0.71 0.1
      vertex -1.3 -0.71 0.1
      vertex -1.09041 -1.19 0.1
    endloop
  endfacet
  facet normal -0.866025 0 0.5
    outer loop
      vertex -1.09041 -1.19 0.1
      vertex -0.7 -1.19 0.776218
      vertex -1.09041 -0.71 0.1
    endloop
  endfacet
  facet normal -0.866025 0 0.5
    outer loop
      vertex -1.09041 -0.71 0.1
      vertex -0.7 -1.19 0.776218
      vertex -0.7 -0.71 0.776218
    endloop
  endfacet
  facet normal -1 0 0
    outer loop
      vertex -0.7 -0.24 0.776218
      vertex -0.7 -1.5 1.2
      vertex -0.7 1.5 1.2
    endloop
  endfacet
  facet normal -1 0 0
    outer loop
      vertex -0.7 -1.5 0.1
      vertex -0.7 -1.5 1.2
      vertex -0.7 -1.19 0.776218
    endloop
  endfacet
  facet normal -1 0 0
    outer loop
      vertex -0.7 -0.24 0.536218
      vertex -0.7 -1.5 1.2
      vertex -0.7 -0.24 0.776218
    endloop
  endfacet
  facet normal -1 0 0
    outer loop
      vertex -0.7 -1.5 0.1
      vertex -0.7 -1.19 0.776218
      vertex -0.7 -1.19 0.536218
    endloop
  endfacet
  facet normal -1 0 0
    outer loop
      vertex -0.7 -1.5 0.1
      vertex -0.7 -1.19 0.536218
      vertex -0.7 1.5 0.1
    endloop
  endfacet
  facet normal -1 0 0
    outer loop
      vertex -0.7 -1.19 0.536218
      vertex -0.7 -0.71 0.536218
      vertex -0.7 1.5 0.1
    endloop
  endfacet
  facet normal -1 0 0
    outer loop
      vertex -0.7 -1.19 0.776218
      vertex -0.7 -1.5 1.2
      vertex -0.7 -0.71 0.776218
    endloop
  endfacet
  facet normal -1 0 0
    outer loop
      vertex -0.7 -0.24 0.536218
      vertex -0.7 -0.71 0.776218
      vertex -0.7 -1.5 1.2
    endloop
  endfacet
  facet normal -1 0 0
    outer loop
      vertex -0.7 0.24 0.776218
      vertex -0.7 -0.24 0.776218
      vertex -0.7 1.5 1.2
    endloop
  endfacet
  facet normal -1 0 0
    outer loop
      vertex -0.7 -0.71 0.536218
      vertex -0.7 -0.24 0.536218
      vertex -0.7 1.5 0.1
    endloop
  endfacet
  facet normal -1 0 0
    outer loop
      vertex -0.7 1.19 0.536218
      vertex -0.7 1.5 0.1
      vertex -0.7 0.71 0.536218
    endloop
  endfacet
  facet normal -1 0 0
    outer loop
      vertex -0.7 0.71 0.776218
      vertex -0.7 0.24 0.776218
      vertex -0.7 1.5 1.2
    endloop
  endfacet
  facet normal -1 0 0
    outer loop
      vertex -0.7 0.71 0.536218
      vertex -0.7 0.24 0.776218
      vertex -0.7 0.71 0.776218
    endloop
  endfacet
  facet normal -1 0 0
    outer loop
      vertex -0.7 1.19 0.776218
      vertex -0.7 0.71 0.776218
      vertex -0.7 1.5 1.2
    endloop
  endfacet
  facet normal -1 0 0
    outer loop
      vertex -0.7 1.5 0.1
      vertex -0.7 0.24 0.776218
      vertex -0.7 0.71 0.536218
    endloop
  endfacet
  facet normal -1 0 0
    outer loop
      vertex -0.7 1.5 0.1
      vertex -0.7 1.19 0.536218
      vertex -0.7 1.5 1.2
    endloop
  endfacet
  facet normal -1 0 0
    outer loop
      vertex -0.7 1.19 0.536218
      vertex -0.7 1.19 0.776218
      vertex -0.7 1.5 1.2
    endloop
  endfacet
  facet normal -1 0 0
    outer loop
      vertex -0.7 0.24 0.776218
      vertex -0.7 1.5 0.1
      vertex -0.7 0.24 0.536218
    endloop
  endfacet
  facet normal -1 0 0
    outer loop
      vertex -0.7 -0.71 0.776218
      vertex -0.7 -0.24 0.536218
      vertex -0.7 -0.71 0.536218
    endloop
  endfacet
  facet normal -1 0 0
    outer loop
      vertex -0.7 0.24 0.536218
      vertex -0.7 1.5 0.1
      vertex -0.7 -0.24 0.536218
    endloop
  endfacet
  facet normal 0.866025 0 -0.5
    outer loop
      vertex -0.7 -1.19 0.536218
      vertex -0.998038 -1.19 0.02
      vertex -0.998038 -0.71 0.02
    endloop
  endfacet
  facet normal 0.866025 0 -0.5
    outer loop
      vertex -0.7 -0.71 0.536218
      vertex -0.7 -1.19 0.536218
      vertex -0.998038 -0.71 0.02
    endloop
  endfacet
  facet normal -0.5 0 -0.866025
    outer loop
      vertex -1 -1.19 0.0211325
      vertex -1 -0.71 0.0211325
      vertex -0.998038 -1.19 0.02
    endloop
  endfacet
  facet normal -0.5 0 -0.866025
    outer loop
      vertex -0.998038 -1.19 0.02
      vertex -1 -0.71 0.0211325
      vertex -0.998038 -0.71 0.02
    endloop
  endfacet
  facet normal 1 0 0
    outer loop
      vertex -1 -1.19 0.0211325
      vertex -1 -1.19 6.93889e-18
      vertex -1 -0.71 6.93889e-18
    endloop
  endfacet
  facet normal 1 0 0
    outer loop
      vertex -1 -0.71 0.0211325
      vertex -1 -1.19 0.0211325
      vertex -1 -0.71 6.93889e-18
    endloop
  endfacet
  facet normal 0 0 -1
    outer loop
      vertex -0.7 -1.5 0.1
      vertex -0.7 1.5 0.1
      vertex 0.7 -1.5 0.1
    endloop
  endfacet
  facet normal 0 0 -1
    outer loop
      vertex 0.7 -1.5 0.1
      vertex -0.7 1.5 0.1
      vertex 0.7 1.5 0.1
    endloop
  endfacet
  facet normal 0 1 0
    outer loop
      vertex -0.7 1.5 0.1
      vertex -0.7 1.5 1.2
      vertex 0.7 1.5 0.1
    endloop
  endfacet
  facet normal 0 1 0
    outer loop
      vertex 0.7 1.5 0.1
      vertex -0.7 1.5 1.2
      vertex 0.7 1.5 1.2
    endloop
  endfacet
  facet normal 0 0 1
    outer loop
      vertex -0.577143 1.15612 1.2
      vertex -0.7 -1.5 1.2
      vertex 0.7 -1.5 1.2
    endloop
  endfacet
  facet normal 0 0 1
    outer loop
      vertex -0.498961 1.40069 1.2
      vertex -0.401039 1.40069 1.2
      vertex 0.7 1.5 1.2
    endloop
  endfacet
  facet normal 0 0 1
    outer loop
      vertex -0.7 1.5 1.2
      vertex -0.7 -1.5 1.2
      vertex -0.608044 1.24878 1.2
    endloop
  endfacet
  facet normal 0 0 1
    outer loop
      vertex -0.401039 1.40069 1.2
      vertex -0.322857 1.34388 1.2
      vertex 0.7 1.5 1.2
    endloop
  endfacet
  facet normal 0 0 1
    outer loop
      vertex -0.7 1.5 1.2
      vertex -0.608044 1.24878 1.2
      vertex -0.60844 1.25 1.2
    endloop
  endfacet
  facet normal 0 0 1
    outer loop
      vertex -0.578182 1.34313 1.2
      vertex -0.7 1.5 1.2
      vertex -0.578579 1.34191 1.2
    endloop
  endfacet
  facet normal 0 0 1
    outer loop
      vertex -0.321818 1.34313 1.2
      vertex -0.291956 1.25122 1.2
      vertex 0.7 -1.5 1.2
    endloop
  endfacet
  facet normal 0 0 1
    outer loop
      vertex -0.5 1.39993 1.2
      vertex -0.7 1.5 1.2
      vertex -0.578182 1.34313 1.2
    endloop
  endfacet
  facet normal 0 0 1
    outer loop
      vertex -0.498961 1.40069 1.2
      vertex -0.7 1.5 1.2
      vertex -0.5 1.39993 1.2
    endloop
  endfacet
  facet normal 0 0 1
    outer loop
      vertex 0.7 1.5 1.2
      vertex -0.7 1.5 1.2
      vertex -0.498961 1.40069 1.2
    endloop
  endfacet
  facet normal 0 0 1
    outer loop
      vertex -0.498961 1.09931 1.2
      vertex -0.577143 1.15612 1.2
      vertex 0.7 -1.5 1.2
    endloop
  endfacet
  facet normal 0 0 1
    outer loop
      vertex -0.401039 1.09931 1.2
      vertex -0.498961 1.09931 1.2
      vertex 0.7 -1.5 1.2
    endloop
  endfacet
  facet normal 0 0 1
    outer loop
      vertex 0.7 1.5 1.2
      vertex -0.321818 1.34313 1.2
      vertex 0.7 -1.5 1.2
    endloop
  endfacet
  facet normal 0 0 1
    outer loop
      vertex 0.7 1.5 1.2
      vertex -0.322857 1.34388 1.2
      vertex -0.321818 1.34313 1.2
    endloop
  endfacet
  facet normal 0 0 1
    outer loop
      vertex -0.291956 1.25122 1.2
      vertex -0.29156 1.25 1.2
      vertex 0.7 -1.5 1.2
    endloop
  endfacet
  facet normal 0 0 1
    outer loop
      vertex -0.29156 1.25 1.2
      vertex -0.321421 1.15809 1.2
      vertex 0.7 -1.5 1.2
    endloop
  endfacet
  facet normal 0 0 1
    outer loop
      vertex -0.321421 1.15809 1.2
      vertex -0.321818 1.15687 1.2
      vertex 0.7 -1.5 1.2
    endloop
  endfacet
  facet normal 0 0 1
    outer loop
      vertex -0.321818 1.15687 1.2
      vertex -0.4 1.10007 1.2
      vertex 0.7 -1.5 1.2
    endloop
  endfacet
  facet normal 0 0 1
    outer loop
      vertex -0.4 1.10007 1.2
      vertex -0.401039 1.09931 1.2
      vertex 0.7 -1.5 1.2
    endloop
  endfacet
  facet normal 0 0 1
    outer loop
      vertex -0.578182 1.15687 1.2
      vertex -0.7 -1.5 1.2
      vertex -0.577143 1.15612 1.2
    endloop
  endfacet
  facet normal 0 0 1
    outer loop
      vertex -0.608044 1.24878 1.2
      vertex -0.7 -1.5 1.2
      vertex -0.578182 1.15687 1.2
    endloop
  endfacet
  facet normal 0 0 1
    outer loop
      vertex -0.60844 1.25 1.2
      vertex -0.578579 1.34191 1.2
      vertex -0.7 1.5 1.2
    endloop
  endfacet
  facet normal 0 -1 0
    outer loop
      vertex -0.7 -1.5 1.2
      vertex -0.7 -1.5 0.1
      vertex 0.7 -1.5 0.1
    endloop
  endfacet
  facet normal 0 -1 0
    outer loop
      vertex 0.7 -1.5 1.2
      vertex -0.7 -1.5 1.2
      vertex 0.7 -1.5 0.1
    endloop
  endfacet
  facet normal -0.866025 0 0.5
    outer loop
      vertex -1.09041 -0.24 0.1
      vertex -0.7 -0.24 0.776218
      vertex -1.09041 0.24 0.1
    endloop
  endfacet
  facet normal -0.866025 0 0.5
    outer loop
      vertex -1.09041 0.24 0.1
      vertex -0.7 -0.24 0.776218
      vertex -0.7 0.24 0.776218
    endloop
  endfacet
  facet normal 0 -1 0
    outer loop
      vertex -1.3 -0.24 0.1
      vertex -1.3 -0.24 6.93889e-18
      vertex -1 -0.24 6.93889e-18
    endloop
  endfacet
  facet normal 0 -1 0
    outer loop
      vertex -1.09041 -0.24 0.1
      vertex -1.3 -0.24 0.1
      vertex -1 -0.24 0.0211325
    endloop
  endfacet
  facet normal 0 -1 0
    outer loop
      vertex -1 -0.24 0.0211325
      vertex -1.3 -0.24 0.1
      vertex -1 -0.24 6.93889e-18
    endloop
  endfacet
  facet normal 0 -1 0
    outer loop
      vertex -0.7 -0.24 0.536218
      vertex -1 -0.24 0.0211325
      vertex -0.998038 -0.24 0.02
    endloop
  endfacet
  facet normal 0 -1 0
    outer loop
      vertex -0.7 -0.24 0.536218
      vertex -1.09041 -0.24 0.1
      vertex -1 -0.24 0.0211325
    endloop
  endfacet
  facet normal 0 -1 0
    outer loop
      vertex -0.7 -0.24 0.776218
      vertex -1.09041 -0.24 0.1
      vertex -0.7 -0.24 0.536218
    endloop
  endfacet
  facet normal 0 1 0
    outer loop
      vertex -1.3 0.24 6.93889e-18
      vertex -1.3 0.24 0.1
      vertex -1 0.24 6.93889e-18
    endloop
  endfacet
  facet normal 0 1 0
    outer loop
      vertex -1 0.24 6.93889e-18
      vertex -1.3 0.24 0.1
      vertex -1.09041 0.24 0.1
    endloop
  endfacet
  facet normal 0 1 0
    outer loop
      vertex -0.998038 0.24 0.02
      vertex -1.09041 0.24 0.1
      vertex -0.7 0.24 0.776218
    endloop
  endfacet
  facet normal 0 1 0
    outer loop
      vertex -1 0.24 0.0211325
      vertex -1.09041 0.24 0.1
      vertex -0.998038 0.24 0.02
    endloop
  endfacet
  facet normal 0 1 0
    outer loop
      vertex -1 0.24 6.93889e-18
      vertex -1.09041 0.24 0.1
      vertex -1 0.24 0.0211325
    endloop
  endfacet
  facet normal 0 1 0
    outer loop
      vertex -0.998038 0.24 0.02
      vertex -0.7 0.24 0.776218
      vertex -0.7 0.24 0.536218
    endloop
  endfacet
  facet normal 0.866025 0 -0.5
    outer loop
      vertex -0.7 -0.24 0.536218
      vertex -0.998038 -0.24 0.02
      vertex -0.998038 0.24 0.02
    endloop
  endfacet
  facet normal 0.866025 0 -0.5
    outer loop
      vertex -0.7 0.24 0.536218
      vertex -0.7 -0.24 0.536218
      vertex -0.998038 0.24 0.02
    endloop
  endfacet
  facet normal -0.866025 0 0.5
    outer loop
      vertex -1.09041 0.71 0.1
      vertex -0.7 0.71 0.776218
      vertex -1.09041 1.19 0.1
    endloop
  endfacet
  facet normal -0.866025 0 0.5
    outer loop
      vertex -1.09041 1.19 0.1
      vertex -0.7 0.71 0.776218
      vertex -0.7 1.19 0.776218
    endloop
  endfacet
  facet normal 0 -1 0
    outer loop
      vertex -1.3 0.71 0.1
      vertex -1.3 0.71 6.93889e-18
      vertex -1 0.71 6.93889e-18
    endloop
  endfacet
  facet normal 0 -1 0
    outer loop
      vertex -1.09041 0.71 0.1
      vertex -1.3 0.71 0.1
      vertex -1 0.71 0.0211325
    endloop
  endfacet
  facet normal 0 -1 0
    outer loop
      vertex -1 0.71 0.0211325
      vertex -1.3 0.71 0.1
      vertex -1 0.71 6.93889e-18
    endloop
  endfacet
  facet normal 0 -1 0
    outer loop
      vertex -0.7 0.71 0.536218
      vertex -1 0.71 0.0211325
      vertex -0.998038 0.71 0.02
    endloop
  endfacet
  facet normal 0 -1 0
    outer loop
      vertex -0.7 0.71 0.536218
      vertex -1.09041 0.71 0.1
      vertex -1 0.71 0.0211325
    endloop
  endfacet
  facet normal 0 -1 0
    outer loop
      vertex -0.7 0.71 0.776218
      vertex -1.09041 0.71 0.1
      vertex -0.7 0.71 0.536218
    endloop
  endfacet
  facet normal 0 1 0
    outer loop
      vertex -1.3 1.19 6.93889e-18
      vertex -1.3 1.19 0.1
      vertex -1 1.19 6.93889e-18
    endloop
  endfacet
  facet normal 0 1 0
    outer loop
      vertex -1 1.19 6.93889e-18
      vertex -1.3 1.19 0.1
      vertex -1.09041 1.19 0.1
    endloop
  endfacet
  facet normal 0 1 0
    outer loop
      vertex -0.998038 1.19 0.02
      vertex -1.09041 1.19 0.1
      vertex -0.7 1.19 0.776218
    endloop
  endfacet
  facet normal 0 1 0
    outer loop
      vertex -1 1.19 0.0211325
      vertex -1.09041 1.19 0.1
      vertex -0.998038 1.19 0.02
    endloop
  endfacet
  facet normal 0 1 0
    outer loop
      vertex -1 1.19 6.93889e-18
      vertex -1.09041 1.19 0.1
      vertex -1 1.19 0.0211325
    endloop
  endfacet
  facet normal 0 1 0
    outer loop
      vertex -0.998038 1.19 0.02
      vertex -0.7 1.19 0.776218
      vertex -0.7 1.19 0.536218
    endloop
  endfacet
  facet normal 0.866025 0 -0.5
    outer loop
      vertex -0.7 0.71 0.536218
      vertex -0.998038 0.71 0.02
      vertex -0.998038 1.19 0.02
    endloop
  endfacet
  facet normal 0.866025 0 -0.5
    outer loop
      vertex -0.7 1.19 0.536218
      vertex -0.7 0.71 0.536218
      vertex -0.998038 1.19 0.02
    endloop
  endfacet
  facet normal 1 0 0
    outer loop
      vertex 0.7 -1.19 0.536218
      vertex 0.7 -1.5 0.1
      vertex 0.7 1.5 0.1
    endloop
  endfacet
  facet normal 1 0 0
    outer loop
      vertex 0.7 -0.71 0.536218
      vertex 0.7 -1.19 0.536218
      vertex 0.7 1.5 0.1
    endloop
  endfacet
  facet normal 1 0 0
    outer loop
      vertex 0.7 -1.5 1.2
      vertex 0.7 -1.5 0.1
      vertex 0.7 -1.19 0.536218
    endloop
  endfacet
  facet normal 1 0 0
    outer loop
      vertex 0.7 -0.24 0.536218
      vertex 0.7 -1.5 1.2
      vertex 0.7 -0.71 0.776218
    endloop
  endfacet
  facet normal 1 0 0
    outer loop
      vertex 0.7 -1.5 1.2
      vertex 0.7 -1.19 0.536218
      vertex 0.7 -1.19 0.776218
    endloop
  endfacet
  facet normal 1 0 0
    outer loop
      vertex 0.7 -1.5 1.2
      vertex 0.7 -1.19 0.776218
      vertex 0.7 -0.71 0.776218
    endloop
  endfacet
  facet normal 1 0 0
    outer loop
      vertex 0.7 -0.24 0.536218
      vertex 0.7 -0.71 0.536218
      vertex 0.7 1.5 0.1
    endloop
  endfacet
  facet normal 1 0 0
    outer loop
      vertex 0.7 0.24 0.536218
      vertex 0.7 -0.24 0.536218
      vertex 0.7 1.5 0.1
    endloop
  endfacet
  facet normal 1 0 0
    outer loop
      vertex 0.7 0.71 0.776218
      vertex 0.7 1.19 0.776218
      vertex 0.7 1.5 1.2
    endloop
  endfacet
  facet normal 1 0 0
    outer loop
      vertex 0.7 1.5 1.2
      vertex 0.7 -1.5 1.2
      vertex 0.7 -0.24 0.776218
    endloop
  endfacet
  facet normal 1 0 0
    outer loop
      vertex 0.7 0.71 0.536218
      vertex 0.7 0.24 0.776218
      vertex 0.7 1.5 0.1
    endloop
  endfacet
  facet normal 1 0 0
    outer loop
      vertex 0.7 1.5 1.2
      vertex 0.7 -0.24 0.776218
      vertex 0.7 0.24 0.776218
    endloop
  endfacet
  facet normal 1 0 0
    outer loop
      vertex 0.7 0.24 0.776218
      vertex 0.7 0.24 0.536218
      vertex 0.7 1.5 0.1
    endloop
  endfacet
  facet normal 1 0 0
    outer loop
      vertex 0.7 1.19 0.536218
      vertex 0.7 0.71 0.536218
      vertex 0.7 1.5 0.1
    endloop
  endfacet
  facet normal 1 0 0
    outer loop
      vertex 0.7 0.71 0.776218
      vertex 0.7 0.24 0.776218
      vertex 0.7 0.71 0.536218
    endloop
  endfacet
  facet normal 1 0 0
    outer loop
      vertex 0.7 1.5 1.2
      vertex 0.7 0.24 0.776218
      vertex 0.7 0.71 0.776218
    endloop
  endfacet
  facet normal 1 0 0
    outer loop
      vertex 0.7 1.5 1.2
      vertex 0.7 1.19 0.776218
      vertex 0.7 1.5 0.1
    endloop
  endfacet
  facet normal 1 0 0
    outer loop
      vertex 0.7 1.19 0.776218
      vertex 0.7 1.19 0.536218
      vertex 0.7 1.5 0.1
    endloop
  endfacet
  facet normal 1 0 0
    outer loop
      vertex 0.7 -0.71 0.776218
      vertex 0.7 -0.71 0.536218
      vertex 0.7 -0.24 0.536218
    endloop
  endfacet
  facet normal 1 0 0
    outer loop
      vertex 0.7 -0.24 0.536218
      vertex 0.7 -0.24 0.776218
      vertex 0.7 -1.5 1.2
    endloop
  endfacet
  facet normal 0.57735 0.187587 0.794656
    outer loop
      vertex -0.608044 1.24878 1.2
      vertex -0.5 1.21367 1.12979
      vertex -0.511803 1.25 1.12979
    endloop
  endfacet
  facet normal 0.57735 0.187587 0.794656
    outer loop
      vertex -0.60844 1.25 1.2
      vertex -0.608044 1.24878 1.2
      vertex -0.511803 1.25 1.12979
    endloop
  endfacet
  facet normal 0.57735 0.187587 0.794656
    outer loop
      vertex -0.578182 1.15687 1.2
      vertex -0.5 1.21367 1.12979
      vertex -0.608044 1.24878 1.2
    endloop
  endfacet
  facet normal 0.356823 0.491117 0.794658
    outer loop
      vertex -0.577143 1.15612 1.2
      vertex -0.469098 1.19122 1.12979
      vertex -0.5 1.21367 1.12979
    endloop
  endfacet
  facet normal 0.356823 0.491117 0.794658
    outer loop
      vertex -0.578182 1.15687 1.2
      vertex -0.577143 1.15612 1.2
      vertex -0.5 1.21367 1.12979
    endloop
  endfacet
  facet normal 0.356819 0.491125 0.794655
    outer loop
      vertex -0.498961 1.09931 1.2
      vertex -0.469098 1.19122 1.12979
      vertex -0.577143 1.15612 1.2
    endloop
  endfacet
  facet normal 0 0.607063 0.794653
    outer loop
      vertex -0.401039 1.09931 1.2
      vertex -0.430902 1.19122 1.12979
      vertex -0.469098 1.19122 1.12979
    endloop
  endfacet
  facet normal 0 0.607063 0.794653
    outer loop
      vertex -0.498961 1.09931 1.2
      vertex -0.401039 1.09931 1.2
      vertex -0.469098 1.19122 1.12979
    endloop
  endfacet
  facet normal -0.356827 0.491121 0.794654
    outer loop
      vertex -0.401039 1.09931 1.2
      vertex -0.4 1.10007 1.2
      vertex -0.4 1.21367 1.12979
    endloop
  endfacet
  facet normal -0.356827 0.491121 0.794654
    outer loop
      vertex -0.430902 1.19122 1.12979
      vertex -0.401039 1.09931 1.2
      vertex -0.4 1.21367 1.12979
    endloop
  endfacet
  facet normal -0.356817 0.491123 0.794657
    outer loop
      vertex -0.321818 1.15687 1.2
      vertex -0.4 1.21367 1.12979
      vertex -0.4 1.10007 1.2
    endloop
  endfacet
  facet normal -0.57735 0.187587 0.794656
    outer loop
      vertex -0.321818 1.15687 1.2
      vertex -0.321421 1.15809 1.2
      vertex -0.388197 1.25 1.12979
    endloop
  endfacet
  facet normal -0.57735 0.187587 0.794656
    outer loop
      vertex -0.4 1.21367 1.12979
      vertex -0.321818 1.15687 1.2
      vertex -0.388197 1.25 1.12979
    endloop
  endfacet
  facet normal -0.57735 0.187587 0.794656
    outer loop
      vertex -0.321421 1.15809 1.2
      vertex -0.29156 1.25 1.2
      vertex -0.388197 1.25 1.12979
    endloop
  endfacet
  facet normal -0.57735 -0.187587 0.794656
    outer loop
      vertex -0.388197 1.25 1.12979
      vertex -0.29156 1.25 1.2
      vertex -0.291956 1.25122 1.2
    endloop
  endfacet
  facet normal -0.57735 -0.187587 0.794656
    outer loop
      vertex -0.4 1.28633 1.12979
      vertex -0.388197 1.25 1.12979
      vertex -0.291956 1.25122 1.2
    endloop
  endfacet
  facet normal -0.57735 -0.187587 0.794656
    outer loop
      vertex -0.291956 1.25122 1.2
      vertex -0.321818 1.34313 1.2
      vertex -0.4 1.28633 1.12979
    endloop
  endfacet
  facet normal -0.356823 -0.491117 0.794658
    outer loop
      vertex -0.4 1.28633 1.12979
      vertex -0.321818 1.34313 1.2
      vertex -0.322857 1.34388 1.2
    endloop
  endfacet
  facet normal -0.356823 -0.491117 0.794658
    outer loop
      vertex -0.430902 1.30878 1.12979
      vertex -0.4 1.28633 1.12979
      vertex -0.322857 1.34388 1.2
    endloop
  endfacet
  facet normal -0.356819 -0.491125 0.794655
    outer loop
      vertex -0.322857 1.34388 1.2
      vertex -0.401039 1.40069 1.2
      vertex -0.430902 1.30878 1.12979
    endloop
  endfacet
  facet normal 0 -0.607063 0.794653
    outer loop
      vertex -0.469098 1.30878 1.12979
      vertex -0.430902 1.30878 1.12979
      vertex -0.401039 1.40069 1.2
    endloop
  endfacet
  facet normal 0 -0.607063 0.794653
    outer loop
      vertex -0.498961 1.40069 1.2
      vertex -0.469098 1.30878 1.12979
      vertex -0.401039 1.40069 1.2
    endloop
  endfacet
  facet normal 0.356827 -0.491121 0.794654
    outer loop
      vertex -0.469098 1.30878 1.12979
      vertex -0.498961 1.40069 1.2
      vertex -0.5 1.39993 1.2
    endloop
  endfacet
  facet normal 0.356827 -0.491121 0.794654
    outer loop
      vertex -0.5 1.28633 1.12979
      vertex -0.469098 1.30878 1.12979
      vertex -0.5 1.39993 1.2
    endloop
  endfacet
  facet normal 0.356817 -0.491123 0.794657
    outer loop
      vertex -0.5 1.28633 1.12979
      vertex -0.5 1.39993 1.2
      vertex -0.578182 1.34313 1.2
    endloop
  endfacet
  facet normal 0.57735 -0.187587 0.794656
    outer loop
      vertex -0.511803 1.25 1.12979
      vertex -0.5 1.28633 1.12979
      vertex -0.578182 1.34313 1.2
    endloop
  endfacet
  facet normal 0.57735 -0.187587 0.794656
    outer loop
      vertex -0.578579 1.34191 1.2
      vertex -0.511803 1.25 1.12979
      vertex -0.578182 1.34313 1.2
    endloop
  endfacet
  facet normal 0.57735 -0.187587 0.794656
    outer loop
      vertex -0.511803 1.25 1.12979
      vertex -0.578579 1.34191 1.2
      vertex -0.60844 1.25 1.2
    endloop
  endfacet
  facet normal 0 0 1
    outer loop
      vertex -1.3 0.24 0.1
      vertex -1.3 -0.24 0.1
      vertex -1.09041 -0.24 0.1
    endloop
  endfacet
  facet normal 0 0 1
    outer loop
      vertex -1.09041 0.24 0.1
      vertex -1.3 0.24 0.1
      vertex -1.09041 -0.24 0.1
    endloop
  endfacet
  facet normal -1 0 0
    outer loop
      vertex -1.3 -0.24 6.93889e-18
      vertex -1.3 -0.24 0.1
      vertex -1.3 0.24 6.93889e-18
    endloop
  endfacet
  facet normal -1 0 0
    outer loop
      vertex -1.3 0.24 6.93889e-18
      vertex -1.3 -0.24 0.1
      vertex -1.3 0.24 0.1
    endloop
  endfacet
  facet normal -0.5 0 -0.866025
    outer loop
      vertex -1 -0.24 0.0211325
      vertex -1 0.24 0.0211325
      vertex -0.998038 -0.24 0.02
    endloop
  endfacet
  facet normal -0.5 0 -0.866025
    outer loop
      vertex -0.998038 -0.24 0.02
      vertex -1 0.24 0.0211325
      vertex -0.998038 0.24 0.02
    endloop
  endfacet
  facet normal 1 0 0
    outer loop
      vertex -1 -0.24 0.0211325
      vertex -1 -0.24 6.93889e-18
      vertex -1 0.24 6.93889e-18
    endloop
  endfacet
  facet normal 1 0 0
    outer loop
      vertex -1 0.24 0.0211325
      vertex -1 -0.24 0.0211325
      vertex -1 0.24 6.93889e-18
    endloop
  endfacet
  facet normal 0 0 -1
    outer loop
      vertex -1.3 -0.24 6.93889e-18
      vertex -1.3 0.24 6.93889e-18
      vertex -1 -0.24 6.93889e-18
    endloop
  endfacet
  facet normal 0 0 -1
    outer loop
      vertex -1 -0.24 6.93889e-18
      vertex -1.3 0.24 6.93889e-18
      vertex -1 0.24 6.93889e-18
    endloop
  endfacet
  facet normal 0 0 1
    outer loop
      vertex -1.3 1.19 0.1
      vertex -1.3 0.71 0.1
      vertex -1.09041 0.71 0.1
    endloop
  endfacet
  facet normal 0 0 1
    outer loop
      vertex -1.09041 1.19 0.1
      vertex -1.3 1.19 0.1
      vertex -1.09041 0.71 0.1
    endloop
  endfacet
  facet normal -1 0 0
    outer loop
      vertex -1.3 0.71 6.93889e-18
      vertex -1.3 0.71 0.1
      vertex -1.3 1.19 6.93889e-18
    endloop
  endfacet
  facet normal -1 0 0
    outer loop
      vertex -1.3 1.19 6.93889e-18
      vertex -1.3 0.71 0.1
      vertex -1.3 1.19 0.1
    endloop
  endfacet
  facet normal -0.5 0 -0.866025
    outer loop
      vertex -1 0.71 0.0211325
      vertex -1 1.19 0.0211325
      vertex -0.998038 0.71 0.02
    endloop
  endfacet
  facet normal -0.5 0 -0.866025
    outer loop
      vertex -0.998038 0.71 0.02
      vertex -1 1.19 0.0211325
      vertex -0.998038 1.19 0.02
    endloop
  endfacet
  facet normal 1 0 0
    outer loop
      vertex -1 0.71 0.0211325
      vertex -1 0.71 6.93889e-18
      vertex -1 1.19 6.93889e-18
    endloop
  endfacet
  facet normal 1 0 0
    outer loop
      vertex -1 1.19 0.0211325
      vertex -1 0.71 0.0211325
      vertex -1 1.19 6.93889e-18
    endloop
  endfacet
  facet normal 0 0 -1
    outer loop
      vertex -1.3 0.71 6.93889e-18
      vertex -1.3 1.19 6.93889e-18
      vertex -1 0.71 6.93889e-18
    endloop
  endfacet
  facet normal 0 0 -1
    outer loop
      vertex -1 0.71 6.93889e-18
      vertex -1.3 1.19 6.93889e-18
      vertex -1 1.19 6.93889e-18
    endloop
  endfacet
  facet normal -1.22465e-16 -1 0
    outer loop
      vertex 0.7 -1.19 0.776218
      vertex 0.7 -1.19 0.536218
      vertex 0.998038 -1.19 0.02
    endloop
  endfacet
  facet normal -1.22465e-16 -1 0
    outer loop
      vertex 1.09041 -1.19 0.1
      vertex 0.7 -1.19 0.776218
      vertex 1 -1.19 0.0211325
    endloop
  endfacet
  facet normal -1.22465e-16 -1 0
    outer loop
      vertex 1 -1.19 0.0211325
      vertex 0.7 -1.19 0.776218
      vertex 0.998038 -1.19 0.02
    endloop
  endfacet
  facet normal -1.22465e-16 -1 0
    outer loop
      vertex 1 -1.19 6.93889e-18
      vertex 1.3 -1.19 6.93889e-18
      vertex 1 -1.19 0.0211325
    endloop
  endfacet
  facet normal -1.22465e-16 -1 0
    outer loop
      vertex 1.3 -1.19 6.93889e-18
      vertex 1.09041 -1.19 0.1
      vertex 1 -1.19 0.0211325
    endloop
  endfacet
  facet normal -1.22465e-16 -1 0
    outer loop
      vertex 1.3 -1.19 0.1
      vertex 1.09041 -1.19 0.1
      vertex 1.3 -1.19 6.93889e-18
    endloop
  endfacet
  facet normal -0.866025 1.06058e-16 -0.5
    outer loop
      vertex 0.7 -1.19 0.536218
      vertex 0.7 -0.71 0.536218
      vertex 0.998038 -1.19 0.02
    endloop
  endfacet
  facet normal -0.866025 1.06058e-16 -0.5
    outer loop
      vertex 0.998038 -1.19 0.02
      vertex 0.7 -0.71 0.536218
      vertex 0.998038 -0.71 0.02
    endloop
  endfacet
  facet normal 1.22465e-16 1 0
    outer loop
      vertex 0.7 -0.71 0.536218
      vertex 0.7 -0.71 0.776218
      vertex 0.998038 -0.71 0.02
    endloop
  endfacet
  facet normal 1.22465e-16 1 0
    outer loop
      vertex 0.998038 -0.71 0.02
      vertex 0.7 -0.71 0.776218
      vertex 1.09041 -0.71 0.1
    endloop
  endfacet
  facet normal 1.22465e-16 1 0
    outer loop
      vertex 1 -0.71 0.0211325
      vertex 1.09041 -0.71 0.1
      vertex 1.3 -0.71 0.1
    endloop
  endfacet
  facet normal 1.22465e-16 1 0
    outer loop
      vertex 0.998038 -0.71 0.02
      vertex 1.09041 -0.71 0.1
      vertex 1 -0.71 0.0211325
    endloop
  endfacet
  facet normal 1.22465e-16 1 0
    outer loop
      vertex 1 -0.71 0.0211325
      vertex 1.3 -0.71 0.1
      vertex 1.3 -0.71 6.93889e-18
    endloop
  endfacet
  facet normal 1.22465e-16 1 0
    outer loop
      vertex 1 -0.71 0.0211325
      vertex 1.3 -0.71 6.93889e-18
      vertex 1 -0.71 6.93889e-18
    endloop
  endfacet
  facet normal 0.866025 -1.06058e-16 0.5
    outer loop
      vertex 0.7 -0.71 0.776218
      vertex 0.7 -1.19 0.776218
      vertex 1.09041 -1.19 0.1
    endloop
  endfacet
  facet normal 0.866025 -1.06058e-16 0.5
    outer loop
      vertex 1.09041 -0.71 0.1
      vertex 0.7 -0.71 0.776218
      vertex 1.09041 -1.19 0.1
    endloop
  endfacet
  facet normal -1.22465e-16 -1 0
    outer loop
      vertex 0.7 -0.24 0.776218
      vertex 0.7 -0.24 0.536218
      vertex 0.998038 -0.24 0.02
    endloop
  endfacet
  facet normal -1.22465e-16 -1 0
    outer loop
      vertex 1.09041 -0.24 0.1
      vertex 0.7 -0.24 0.776218
      vertex 1 -0.24 0.0211325
    endloop
  endfacet
  facet normal -1.22465e-16 -1 0
    outer loop
      vertex 1 -0.24 0.0211325
      vertex 0.7 -0.24 0.776218
      vertex 0.998038 -0.24 0.02
    endloop
  endfacet
  facet normal -1.22465e-16 -1 0
    outer loop
      vertex 1 -0.24 6.93889e-18
      vertex 1.3 -0.24 6.93889e-18
      vertex 1 -0.24 0.0211325
    endloop
  endfacet
  facet normal -1.22465e-16 -1 0
    outer loop
      vertex 1.3 -0.24 6.93889e-18
      vertex 1.09041 -0.24 0.1
      vertex 1 -0.24 0.0211325
    endloop
  endfacet
  facet normal -1.22465e-16 -1 0
    outer loop
      vertex 1.3 -0.24 0.1
      vertex 1.09041 -0.24 0.1
      vertex 1.3 -0.24 6.93889e-18
    endloop
  endfacet
  facet normal -0.866025 1.06058e-16 -0.5
    outer loop
      vertex 0.7 -0.24 0.536218
      vertex 0.7 0.24 0.536218
      vertex 0.998038 -0.24 0.02
    endloop
  endfacet
  facet normal -0.866025 1.06058e-16 -0.5
    outer loop
      vertex 0.998038 -0.24 0.02
      vertex 0.7 0.24 0.536218
      vertex 0.998038 0.24 0.02
    endloop
  endfacet
  facet normal 1.22465e-16 1 0
    outer loop
      vertex 0.7 0.24 0.536218
      vertex 0.7 0.24 0.776218
      vertex 0.998038 0.24 0.02
    endloop
  endfacet
  facet normal 1.22465e-16 1 0
    outer loop
      vertex 0.998038 0.24 0.02
      vertex 0.7 0.24 0.776218
      vertex 1.09041 0.24 0.1
    endloop
  endfacet
  facet normal 1.22465e-16 1 0
    outer loop
      vertex 1 0.24 0.0211325
      vertex 1.09041 0.24 0.1
      vertex 1.3 0.24 0.1
    endloop
  endfacet
  facet normal 1.22465e-16 1 0
    outer loop
      vertex 0.998038 0.24 0.02
      vertex 1.09041 0.24 0.1
      vertex 1 0.24 0.0211325
    endloop
  endfacet
  facet normal 1.22465e-16 1 0
    outer loop
      vertex 1 0.24 0.0211325
      vertex 1.3 0.24 0.1
      vertex 1.3 0.24 6.93889e-18
    endloop
  endfacet
  facet normal 1.22465e-16 1 0
    outer loop
      vertex 1 0.24 0.0211325
      vertex 1.3 0.24 6.93889e-18
      vertex 1 0.24 6.93889e-18
    endloop
  endfacet
  facet normal 0.866025 -1.06058e-16 0.5
    outer loop
      vertex 0.7 0.24 0.776218
      vertex 0.7 -0.24 0.776218
      vertex 1.09041 -0.24 0.1
    endloop
  endfacet
  facet normal 0.866025 -1.06058e-16 0.5
    outer loop
      vertex 1.09041 0.24 0.1
      vertex 0.7 0.24 0.776218
      vertex 1.09041 -0.24 0.1
    endloop
  endfacet
  facet normal -1.22465e-16 -1 0
    outer loop
      vertex 0.7 0.71 0.776218
      vertex 0.7 0.71 0.536218
      vertex 0.998038 0.71 0.02
    endloop
  endfacet
  facet normal -1.22465e-16 -1 0
    outer loop
      vertex 1.09041 0.71 0.1
      vertex 0.7 0.71 0.776218
      vertex 1 0.71 0.0211325
    endloop
  endfacet
  facet normal -1.22465e-16 -1 0
    outer loop
      vertex 1 0.71 0.0211325
      vertex 0.7 0.71 0.776218
      vertex 0.998038 0.71 0.02
    endloop
  endfacet
  facet normal -1.22465e-16 -1 0
    outer loop
      vertex 1 0.71 6.93889e-18
      vertex 1.3 0.71 6.93889e-18
      vertex 1 0.71 0.0211325
    endloop
  endfacet
  facet normal -1.22465e-16 -1 0
    outer loop
      vertex 1.3 0.71 6.93889e-18
      vertex 1.09041 0.71 0.1
      vertex 1 0.71 0.0211325
    endloop
  endfacet
  facet normal -1.22465e-16 -1 0
    outer loop
      vertex 1.3 0.71 0.1
      vertex 1.09041 0.71 0.1
      vertex 1.3 0.71 6.93889e-18
    endloop
  endfacet
  facet normal -0.866025 1.06058e-16 -0.5
    outer loop
      vertex 0.7 0.71 0.536218
      vertex 0.7 1.19 0.536218
      vertex 0.998038 0.71 0.02
    endloop
  endfacet
  facet normal -0.866025 1.06058e-16 -0.5
    outer loop
      vertex 0.998038 0.71 0.02
      vertex 0.7 1.19 0.536218
      vertex 0.998038 1.19 0.02
    endloop
  endfacet
  facet normal 1.22465e-16 1 0
    outer loop
      vertex 0.7 1.19 0.536218
      vertex 0.7 1.19 0.776218
      vertex 0.998038 1.19 0.02
    endloop
  endfacet
  facet normal 1.22465e-16 1 0
    outer loop
      vertex 0.998038 1.19 0.02
      vertex 0.7 1.19 0.776218
      vertex 1.09041 1.19 0.1
    endloop
  endfacet
  facet normal 1.22465e-16 1 0
    outer loop
      vertex 1 1.19 0.0211325
      vertex 1.09041 1.19 0.1
      vertex 1.3 1.19 0.1
    endloop
  endfacet
  facet normal 1.22465e-16 1 0
    outer loop
      vertex 0.998038 1.19 0.02
      vertex 1.09041 1.19 0.1
      vertex 1 1.19 0.0211325
    endloop
  endfacet
  facet normal 1.22465e-16 1 0
    outer loop
      vertex 1 1.19 0.0211325
      vertex 1.3 1.19 0.1
      vertex 1.3 1.19 6.93889e-18
    endloop
  endfacet
  facet normal 1.22465e-16 1 0
    outer loop
      vertex 1 1.19 0.0211325
      vertex 1.3 1.19 6.93889e-18
      vertex 1 1.19 6.93889e-18
    endloop
  endfacet
  facet normal 0.866025 -1.06058e-16 0.5
    outer loop
      vertex 0.7 1.19 0.776218
      vertex 0.7 0.71 0.776218
      vertex 1.09041 0.71 0.1
    endloop
  endfacet
  facet normal 0.866025 -1.06058e-16 0.5
    outer loop
      vertex 1.09041 1.19 0.1
      vertex 0.7 1.19 0.776218
      vertex 1.09041 0.71 0.1
    endloop
  endfacet
  facet normal 0 0 1
    outer loop
      vertex -0.5 1.21367 1.12979
      vertex -0.469098 1.19122 1.12979
      vertex -0.430902 1.19122 1.12979
    endloop
  endfacet
  facet normal 0 0 1
    outer loop
      vertex -0.388197 1.25 1.12979
      vertex -0.5 1.21367 1.12979
      vertex -0.4 1.21367 1.12979
    endloop
  endfacet
  facet normal 0 0 1
    outer loop
      vertex -0.4 1.21367 1.12979
      vertex -0.5 1.21367 1.12979
      vertex -0.430902 1.19122 1.12979
    endloop
  endfacet
  facet normal 0 0 1
    outer loop
      vertex -0.4 1.28633 1.12979
      vertex -0.5 1.21367 1.12979
      vertex -0.388197 1.25 1.12979
    endloop
  endfacet
  facet normal 0 0 1
    outer loop
      vertex -0.430902 1.30878 1.12979
      vertex -0.5 1.21367 1.12979
      vertex -0.4 1.28633 1.12979
    endloop
  endfacet
  facet normal 0 0 1
    outer loop
      vertex -0.469098 1.30878 1.12979
      vertex -0.5 1.21367 1.12979
      vertex -0.430902 1.30878 1.12979
    endloop
  endfacet
  facet normal 0 0 1
    outer loop
      vertex -0.5 1.28633 1.12979
      vertex -0.5 1.21367 1.12979
      vertex -0.469098 1.30878 1.12979
    endloop
  endfacet
  facet normal 0 0 1
    outer loop
      vertex -0.511803 1.25 1.12979
      vertex -0.5 1.21367 1.12979
      vertex -0.5 1.28633 1.12979
    endloop
  endfacet
  facet normal 0 0 1
    outer loop
      vertex 1.09041 -0.71 0.1
      vertex 1.09041 -1.19 0.1
      vertex 1.3 -1.19 0.1
    endloop
  endfacet
  facet normal 0 0 1
    outer loop
      vertex 1.3 -0.71 0.1
      vertex 1.09041 -0.71 0.1
      vertex 1.3 -1.19 0.1
    endloop
  endfacet
  facet normal 1 -1.22465e-16 0
    outer loop
      vertex 1.3 -1.19 0.1
      vertex 1.3 -1.19 6.93889e-18
      vertex 1.3 -0.71 6.93889e-18
    endloop
  endfacet
  facet normal 1 -1.22465e-16 0
    outer loop
      vertex 1.3 -0.71 0.1
      vertex 1.3 -1.19 0.1
      vertex 1.3 -0.71 6.93889e-18
    endloop
  endfacet
  facet normal 0 0 -1
    outer loop
      vertex 1 -1.19 6.93889e-18
      vertex 1 -0.71 6.93889e-18
      vertex 1.3 -1.19 6.93889e-18
    endloop
  endfacet
  facet normal 0 0 -1
    outer loop
      vertex 1.3 -1.19 6.93889e-18
      vertex 1 -0.71 6.93889e-18
      vertex 1.3 -0.71 6.93889e-18
    endloop
  endfacet
  facet normal -1 1.22465e-16 0
    outer loop
      vertex 1 -1.19 6.93889e-18
      vertex 1 -1.19 0.0211325
      vertex 1 -0.71 6.93889e-18
    endloop
  endfacet
  facet normal -1 1.22465e-16 0
    outer loop
      vertex 1 -0.71 6.93889e-18
      vertex 1 -1.19 0.0211325
      vertex 1 -0.71 0.0211325
    endloop
  endfacet
  facet normal 0.5 -6.12323e-17 -0.866025
    outer loop
      vertex 0.998038 -1.19 0.02
      vertex 0.998038 -0.71 0.02
      vertex 1 -1.19 0.0211325
    endloop
  endfacet
  facet normal 0.5 -6.12323e-17 -0.866025
    outer loop
      vertex 1 -1.19 0.0211325
      vertex 0.998038 -0.71 0.02
      vertex 1 -0.71 0.0211325
    endloop
  endfacet
  facet normal 0 0 1
    outer loop
      vertex 1.09041 0.24 0.1
      vertex 1.09041 -0.24 0.1
      vertex 1.3 -0.24 0.1
    endloop
  endfacet
  facet normal 0 0 1
    outer loop
      vertex 1.3 0.24 0.1
      vertex 1.09041 0.24 0.1
      vertex 1.3 -0.24 0.1
    endloop
  endfacet
  facet normal 1 -1.22465e-16 0
    outer loop
      vertex 1.3 -0.24 0.1
      vertex 1.3 -0.24 6.93889e-18
      vertex 1.3 0.24 6.93889e-18
    endloop
  endfacet
  facet normal 1 -1.22465e-16 0
    outer loop
      vertex 1.3 0.24 0.1
      vertex 1.3 -0.24 0.1
      vertex 1.3 0.24 6.93889e-18
    endloop
  endfacet
  facet normal 0 0 -1
    outer loop
      vertex 1 -0.24 6.93889e-18
      vertex 1 0.24 6.93889e-18
      vertex 1.3 -0.24 6.93889e-18
    endloop
  endfacet
  facet normal 0 0 -1
    outer loop
      vertex 1.3 -0.24 6.93889e-18
      vertex 1 0.24 6.93889e-18
      vertex 1.3 0.24 6.93889e-18
    endloop
  endfacet
  facet normal -1 1.22465e-16 0
    outer loop
      vertex 1 -0.24 6.93889e-18
      vertex 1 -0.24 0.0211325
      vertex 1 0.24 6.93889e-18
    endloop
  endfacet
  facet normal -1 1.22465e-16 0
    outer loop
      vertex 1 0.24 6.93889e-18
      vertex 1 -0.24 0.0211325
      vertex 1 0.24 0.0211325
    endloop
  endfacet
  facet normal 0.5 -6.12323e-17 -0.866025
    outer loop
      vertex 0.998038 -0.24 0.02
      vertex 0.998038 0.24 0.02
      vertex 1 -0.24 0.0211325
    endloop
  endfacet
  facet normal 0.5 -6.12323e-17 -0.866025
    outer loop
      vertex 1 -0.24 0.0211325
      vertex 0.998038 0.24 0.02
      vertex 1 0.24 0.0211325
    endloop
  endfacet
  facet normal 0 0 1
    outer loop
      vertex 1.09041 1.19 0.1
      vertex 1.09041 0.71 0.1
      vertex 1.3 0.71 0.1
    endloop
  endfacet
  facet normal 0 0 1
    outer loop
      vertex 1.3 1.19 0.1
      vertex 1.09041 1.19 0.1
      vertex 1.3 0.71 0.1
    endloop
  endfacet
  facet normal 1 -1.22465e-16 0
    outer loop
      vertex 1.3 0.71 0.1
      vertex 1.3 0.71 6.93889e-18
      vertex 1.3 1.19 6.93889e-18
    endloop
  endfacet
  facet normal 1 -1.22465e-16 0
    outer loop
      vertex 1.3 1.19 0.1
      vertex 1.3 0.71 0.1
      vertex 1.3 1.19 6.93889e-18
    endloop
  endfacet
  facet normal 0 0 -1
    outer loop
      vertex 1 0.71 6.93889e-18
      vertex 1 1.19 6.93889e-18
      vertex 1.3 0.71 6.93889e-18
    endloop
  endfacet
  facet normal 0 0 -1
    outer loop
      vertex 1.3 0.71 6.93889e-18
      vertex 1 1.19 6.93889e-18
      vertex 1.3 1.19 6.93889e-18
    endloop
  endfacet
  facet normal -1 1.22465e-16 0
    outer loop
      vertex 1 0.71 6.93889e-18
      vertex 1 0.71 0.0211325
      vertex 1 1.19 6.93889e-18
    endloop
  endfacet
  facet normal -1 1.22465e-16 0
    outer loop
      vertex 1 1.19 6.93889e-18
      vertex 1 0.71 0.0211325
      vertex 1 1.19 0.0211325
    endloop
  endfacet
  facet normal 0.5 -6.12323e-17 -0.866025
    outer loop
      vertex 0.998038 0.71 0.02
      vertex 0.998038 1.19 0.02
      vertex 1 0.71 0.0211325
    endloop
  endfacet
  facet normal 0.5 -6.12323e-17 -0.866025
    outer loop
      vertex 1 0.71 0.0211325
      vertex 0.998038 1.19 0.02
      vertex 1 1.19 0.0211325
    endloop
  endfacet
endsolid OpenSCAD_Model
