solid OpenSCAD_Model
  facet normal -1 0 0
    outer loop
      vertex -1.25 -2.5 0.52
      vertex -1.25 2.5 0.52
      vertex -1.25 -2.5 0
    endloop
  endfacet
  facet normal -1 0 0
    outer loop
      vertex -1.25 -2.5 0
      vertex -1.25 2.5 0.52
      vertex -1.25 2.5 0
    endloop
  endfacet
  facet normal 0 0 1
    outer loop
      vertex -1.25 -2.5 0.52
      vertex 1.25 -2.5 0.52
      vertex 1.25 2.5 0.52
    endloop
  endfacet
  facet normal 0 0 1
    outer loop
      vertex -1.25 2.5 0.52
      vertex -1.25 -2.5 0.52
      vertex 1.25 2.5 0.52
    endloop
  endfacet
  facet normal 0 -1 0
    outer loop
      vertex -1.25 -2.5 0
      vertex 1.25 -2.5 0
      vertex 1.25 -2.5 0.52
    endloop
  endfacet
  facet normal 0 -1 0
    outer loop
      vertex -1.25 -2.5 0.52
      vertex -1.25 -2.5 0
      vertex 1.25 -2.5 0.52
    endloop
  endfacet
  facet normal 0 0 -1
    outer loop
      vertex -1.25 2.5 0
      vertex 1.25 2.5 0
      vertex -1.25 -2.5 0
    endloop
  endfacet
  facet normal 0 0 -1
    outer loop
      vertex -1.25 -2.5 0
      vertex 1.25 2.5 0
      vertex 1.25 -2.5 0
    endloop
  endfacet
  facet normal 0 1 0
    outer loop
      vertex -1.25 2.5 0.52
      vertex 1.25 2.5 0.52
      vertex -1.25 2.5 0
    endloop
  endfacet
  facet normal 0 1 0
    outer loop
      vertex -1.25 2.5 0
      vertex 1.25 2.5 0.52
      vertex 1.25 2.5 0
    endloop
  endfacet
  facet normal 1 0 0
    outer loop
      vertex 1.25 -2.5 0
      vertex 1.25 2.5 0
      vertex 1.25 2.5 0.52
    endloop
  endfacet
  facet normal 1 0 0
    outer loop
      vertex 1.25 -2.5 0.52
      vertex 1.25 -2.5 0
      vertex 1.25 2.5 0.52
    endloop
  endfacet
endsolid OpenSCAD_Model
