solid OpenSCAD_Model
  facet normal -1 0 0
    outer loop
      vertex -0.625 -1 0.45
      vertex -0.625 1 0.45
      vertex -0.625 -1 2.77556e-17
    endloop
  endfacet
  facet normal -1 0 0
    outer loop
      vertex -0.625 -1 2.77556e-17
      vertex -0.625 1 0.45
      vertex -0.625 1 2.77556e-17
    endloop
  endfacet
  facet normal 0 0 1
    outer loop
      vertex -0.625 -1 0.45
      vertex 0.625 -1 0.45
      vertex 0.625 1 0.45
    endloop
  endfacet
  facet normal 0 0 1
    outer loop
      vertex -0.625 1 0.45
      vertex -0.625 -1 0.45
      vertex 0.625 1 0.45
    endloop
  endfacet
  facet normal 0 -1 0
    outer loop
      vertex -0.625 -1 2.77556e-17
      vertex 0.625 -1 2.77556e-17
      vertex 0.625 -1 0.45
    endloop
  endfacet
  facet normal 0 -1 0
    outer loop
      vertex -0.625 -1 0.45
      vertex -0.625 -1 2.77556e-17
      vertex 0.625 -1 0.45
    endloop
  endfacet
  facet normal 0 0 -1
    outer loop
      vertex -0.625 1 2.77556e-17
      vertex 0.625 1 2.77556e-17
      vertex -0.625 -1 2.77556e-17
    endloop
  endfacet
  facet normal 0 0 -1
    outer loop
      vertex -0.625 -1 2.77556e-17
      vertex 0.625 1 2.77556e-17
      vertex 0.625 -1 2.77556e-17
    endloop
  endfacet
  facet normal 0 1 0
    outer loop
      vertex -0.625 1 0.45
      vertex 0.625 1 0.45
      vertex -0.625 1 2.77556e-17
    endloop
  endfacet
  facet normal 0 1 0
    outer loop
      vertex -0.625 1 2.77556e-17
      vertex 0.625 1 0.45
      vertex 0.625 1 2.77556e-17
    endloop
  endfacet
  facet normal 1 0 0
    outer loop
      vertex 0.625 -1 2.77556e-17
      vertex 0.625 1 2.77556e-17
      vertex 0.625 1 0.45
    endloop
  endfacet
  facet normal 1 0 0
    outer loop
      vertex 0.625 -1 0.45
      vertex 0.625 -1 2.77556e-17
      vertex 0.625 1 0.45
    endloop
  endfacet
endsolid OpenSCAD_Model
